<?xml version="1.0" standalone="no"?>
<!DOCTYPE svg PUBLIC "-//W3C//DTD SVG 20010904//EN"
 "http://www.w3.org/TR/2001/REC-SVG-20010904/DTD/svg10.dtd">
<svg version="1.0" xmlns="http://www.w3.org/2000/svg"
 width="300.000000pt" height="200.000000pt" viewBox="0 0 300.000000 200.000000"
 preserveAspectRatio="xMidYMid meet">
<metadata>
Created by potrace 1.10, written by Peter Selinger 2001-2011
</metadata>
<g transform="translate(0.000000,200.000000) scale(0.100000,-0.100000)"
fill="#000000" stroke="none">
<path d="M1232 1208 c-9 -9 -12 -97 -12 -335 l0 -323 -55 0 c-62 0 -66 -7 -35
-57 l20 -33 -95 0 -95 0 -2 278 -3 277 -160 0 -160 0 -3 -277 -2 -278 -205 0
c-113 0 -205 -3 -205 -7 0 -5 576 -8 1280 -8 704 0 1280 3 1280 8 0 7 -69 8
-1032 7 l-576 0 -21 26 c-12 15 -21 31 -21 35 0 5 273 9 610 9 524 0 610 -2
610 -14 0 -8 -4 -18 -10 -21 -6 -3 -10 -12 -10 -18 1 -20 40 34 40 54 0 16 -8
19 -55 19 l-55 0 0 323 c0 238 -3 326 -12 335 -17 17 -999 17 -1016 0z m1006
-10 c9 -9 12 -96 12 -330 l0 -318 -507 0 -508 0 2 317 c2 175 5 324 8 331 6
17 975 18 993 0z m-1488 -198 c0 -5 -25 -10 -56 -10 -34 0 -53 4 -49 10 3 6
28 10 56 10 27 0 49 -4 49 -10z m195 0 c4 -6 -20 -10 -64 -10 -41 0 -71 4 -71
10 0 6 28 10 64 10 36 0 68 -4 71 -10z m5 -260 l0 -240 -155 0 -155 0 0 240 0
240 155 0 155 0 0 -240z m-180 -265 c0 -13 -11 -15 -62 -13 -38 2 -63 8 -66
16 -3 9 14 12 62 12 53 0 66 -3 66 -15z m178 3 c-3 -8 -28 -14 -66 -16 -51 -2
-62 0 -62 13 0 12 13 15 66 15 48 0 65 -3 62 -12z"/>
<path d="M1262 888 l3 -293 475 0 475 0 3 293 2 292 -480 0 -480 0 2 -292z
m948 2 l0 -280 -470 0 -470 0 0 280 0 280 470 0 470 0 0 -280z"/>
<path d="M2023 1113 c26 -2 68 -2 95 0 26 2 4 3 -48 3 -52 0 -74 -1 -47 -3z"/>
<path d="M2008 1093 c18 -2 45 -2 60 0 15 2 0 4 -33 4 -33 0 -45 -2 -27 -4z"/>
<path d="M1405 1047 c-3 -7 -4 -96 -3 -197 l3 -185 235 0 235 0 0 195 0 195
-233 3 c-183 2 -234 0 -237 -11z m465 -187 l0 -190 -230 0 -230 0 0 180 0 180
226 0 c147 0 223 3 219 10 -3 6 -1 10 4 10 7 0 11 -63 11 -190z"/>
<path d="M1452 978 c-7 -7 -12 -17 -12 -22 0 -6 5 -3 11 7 13 23 29 22 29 -2
0 -24 16 -36 26 -20 4 8 3 9 -4 5 -8 -5 -12 2 -12 18 0 28 -18 34 -38 14z"/>
<path d="M1529 973 c14 -28 14 -44 0 -40 -6 1 -13 -6 -14 -16 -3 -18 -3 -18
16 -1 23 21 24 34 3 60 -15 18 -15 18 -5 -3z"/>
<path d="M1787 927 c-37 -39 -45 -41 -99 -22 -7 2 -25 -13 -41 -36 -35 -51
-52 -57 -88 -30 l-29 22 -44 -38 c-24 -21 -42 -41 -39 -46 2 -4 15 6 29 22 36
43 59 47 99 17 31 -24 34 -25 39 -8 4 10 22 33 41 52 32 31 37 33 68 23 32
-10 36 -8 61 23 15 19 33 34 41 34 8 0 15 4 15 9 0 22 -17 14 -53 -22z"/>
<path d="M1819 876 c-8 -8 3 -176 12 -176 5 0 9 41 9 90 0 79 -5 101 -21 86z"/>
<path d="M1740 770 c0 -56 3 -70 15 -70 12 0 15 14 15 70 0 56 -3 70 -15 70
-12 0 -15 -14 -15 -70z"/>
<path d="M1519 788 c-1 -2 -3 -22 -4 -45 -2 -32 1 -43 11 -43 10 0 14 13 14
45 0 25 -4 45 -10 45 -5 0 -11 -1 -11 -2z"/>
<path d="M1669 788 c-1 -2 -2 -22 -3 -45 -1 -30 2 -43 11 -43 9 0 13 15 13 45
0 25 -4 45 -10 45 -5 0 -10 -1 -11 -2z"/>
<path d="M1590 735 c0 -24 5 -35 15 -35 10 0 15 11 15 35 0 24 -5 35 -15 35
-10 0 -15 -11 -15 -35z"/>
<path d="M1440 725 c0 -16 6 -25 15 -25 9 0 15 9 15 25 0 16 -6 25 -15 25 -9
0 -15 -9 -15 -25z"/>
<path d="M890 850 c0 -33 4 -60 10 -60 6 0 10 27 10 60 0 33 -4 60 -10 60 -6
0 -10 -27 -10 -60z"/>
<path d="M763 835 c3 -59 22 -59 23 0 1 30 -3 45 -12 45 -8 0 -12 -14 -11 -45z"/>
<path d="M850 835 c0 -25 5 -45 10 -45 6 0 10 20 10 45 0 25 -4 45 -10 45 -5
0 -10 -20 -10 -45z"/>
<path d="M687 863 c-11 -10 -8 -73 3 -73 6 0 10 18 10 40 0 41 -2 45 -13 33z"/>
<path d="M727 853 c-12 -12 -7 -63 6 -63 7 0 12 12 11 30 -1 33 -7 44 -17 33z"/>
<path d="M810 825 c0 -19 5 -35 10 -35 6 0 10 16 10 35 0 19 -4 35 -10 35 -5
0 -10 -16 -10 -35z"/>
<path d="M743 653 c32 -2 81 -2 110 0 29 2 3 3 -58 3 -60 0 -84 -1 -52 -3z"/>
<path d="M748 583 c17 -2 47 -2 65 0 17 2 3 4 -33 4 -36 0 -50 -2 -32 -4z"/>
</g>
</svg>
